REM Ripping Tool: trurip

FILE "Doukyuusei (1995)(NEC Avenue)(JP)[A].img" BINARY
  TRACK 01 AUDIO
    INDEX 01 00:00:00
  TRACK 02 MODE1/2352
    INDEX 00 00:44:65
    INDEX 01 00:47:65
  TRACK 03 AUDIO
    INDEX 00 33:36:29
    INDEX 01 33:38:29
  TRACK 04 AUDIO
    INDEX 01 38:15:56
  TRACK 05 AUDIO
    INDEX 01 42:35:19
  TRACK 06 AUDIO
    INDEX 01 47:54:71
  TRACK 07 AUDIO
    INDEX 01 51:38:14

REM DISC HASHES
REM CRC32 : 8e5fe8f6
REM MD5   : ebdf4fcd1d33616078dda00e7519ff59
REM SHA1  : 97b3a84e388b978b6857280cf293e1e22d53bfd6

REM Gap Append Method: Prev [crc32]
REM Trk 01: ec771d85
REM Trk 02: c6ff9417
REM Trk 03: 5ce51700
REM Trk 04: 64d3cc93
REM Trk 05: 5bfe5a19
REM Trk 06: 905604a3
REM Trk 07: 0dbcb6a9

REM Gap Append Method: Prev [md5]
REM Trk 01: 9f0ae65064d7ca93f658928430cc7999
REM Trk 02: ef9730f5cdf31288c4a5ef3d4dc268c5
REM Trk 03: 187e451b0e617e756551a6796176669b
REM Trk 04: 24e7075aa0c17c3a099ec359021b5644
REM Trk 05: 87ee551b8e8e1224f40630facbb08a95
REM Trk 06: fb756034f6944ef74d7c81ff99bfb328
REM Trk 07: 6bcf90fbd2c40bea2d96e19b1963fcd3

REM Gap Append Method: Prev [sha1]
REM Trk 01: 228760d509cdd47865d7d9c6c3daf0c5ef72a902
REM Trk 02: 4b180096386e3e1cce0643f3a7af8e13226099ae
REM Trk 03: 8c802f0b9d17bf160be7a8ae6076fb1c5b602c7e
REM Trk 04: a523801dc349d700905ac774eb32d0e12e969d27
REM Trk 05: 93d6622a06cf412ccef5291e2765cee0898b6663
REM Trk 06: 3885dfd1d2640838d09dd0077bdda91a7b16e1ce
REM Trk 07: 2fa4c2e2143ee3e78cd0f8ff2ef84b5bfed9fd30

REM Gap Append Method: None [crc32]
REM Trk 01: 3c73890d
REM Trk 02: b9ebd5fb
REM Trk 03: 5ce51700
REM Trk 04: 64d3cc93
REM Trk 05: 5bfe5a19
REM Trk 06: 905604a3
REM Trk 07: 0dbcb6a9
REM Gap 02: 16e86594
REM Gap 03: 7abe247f

REM Gap Append Method: None [md5]
REM Trk 01: d80510a2348091411a158397e14a6fc2
REM Trk 02: eac27741502d977d0d73d6320ca1de14
REM Trk 03: 187e451b0e617e756551a6796176669b
REM Trk 04: 24e7075aa0c17c3a099ec359021b5644
REM Trk 05: 87ee551b8e8e1224f40630facbb08a95
REM Trk 06: fb756034f6944ef74d7c81ff99bfb328
REM Trk 07: 6bcf90fbd2c40bea2d96e19b1963fcd3
REM Gap 02: fbd314ec9876f082e173fbb5baf092aa
REM Gap 03: 9df204fbc98bb8965081cb30a89715fc

REM Gap Append Method: None [sha1]
REM Trk 01: 334c39e04eecd1db16868aaa63dcfa5146eac073
REM Trk 02: 51fdddb2194300b53cf9a763c75ed20c4f2ce085
REM Trk 03: 8c802f0b9d17bf160be7a8ae6076fb1c5b602c7e
REM Trk 04: a523801dc349d700905ac774eb32d0e12e969d27
REM Trk 05: 93d6622a06cf412ccef5291e2765cee0898b6663
REM Trk 06: 3885dfd1d2640838d09dd0077bdda91a7b16e1ce
REM Trk 07: 2fa4c2e2143ee3e78cd0f8ff2ef84b5bfed9fd30
REM Gap 02: 08a9af7bae10b281a8edaad6e9ea6cd1646d0ce0
REM Gap 03: cbe29e0bd725ef1194f8c47619dd42078e841de2

REM Gap Append Method: Next [crc32]
REM Trk 01: 3c73890d
REM Trk 02: aee8adaa
REM Trk 03: 4d6c00ab
REM Trk 04: 64d3cc93
REM Trk 05: 5bfe5a19
REM Trk 06: 905604a3
REM Trk 07: 0dbcb6a9

REM Gap Append Method: Next [md5]
REM Trk 01: d80510a2348091411a158397e14a6fc2
REM Trk 02: b8ce4e58783c263a9d66b6697af43c8e
REM Trk 03: a4b7e73cdff17928ae491d24bc189926
REM Trk 04: 24e7075aa0c17c3a099ec359021b5644
REM Trk 05: 87ee551b8e8e1224f40630facbb08a95
REM Trk 06: fb756034f6944ef74d7c81ff99bfb328
REM Trk 07: 6bcf90fbd2c40bea2d96e19b1963fcd3

REM Gap Append Method: Next [sha1]
REM Trk 01: 334c39e04eecd1db16868aaa63dcfa5146eac073
REM Trk 02: b56578889ba43c19955ace3c7d512527b919cb0d
REM Trk 03: 585f4363f7df244e54e29a6ddc599cad47954671
REM Trk 04: a523801dc349d700905ac774eb32d0e12e969d27
REM Trk 05: 93d6622a06cf412ccef5291e2765cee0898b6663
REM Trk 06: 3885dfd1d2640838d09dd0077bdda91a7b16e1ce
REM Trk 07: 2fa4c2e2143ee3e78cd0f8ff2ef84b5bfed9fd30

